<svg xmlns="http://www.w3.org/2000/svg" width="203.7788" height="34.4301" viewBox="0 0 53.9165 9.1096"><path fill="navy" d="M3.3165 5.6669c0-.3453.0173-.7596-.2072-1.0531-.3453-.2245-.7769-.1727-1.174-.1727-.397 0-.6733.3108-.656.6906-.0518.6733-.0173 1.3293-.0345 1.9854 0 .397-.0345.846.1899 1.2085.3107.2762.7769.2417 1.174.2244.3452-.0172.6905-.259.6905-.6215.0346-.7596 0-1.502.0173-2.2443zm.5697 3.004c-.656.328-1.433.3107-2.1408.259-.587-.0519-1.2775-.2072-1.5537-.777C-.0846 7.635.019 7.048.019 6.4956V.6776C.0363.2631.5715.2631.8822.3322c.2763.0172.3798.2934.3453.5179v3.2456c.7251-.138 1.502-.138 2.2098.0346.518.1036.9668.5179 1.0704 1.0358.0863.5007.0345 1.0186.0518 1.5193 0 .587.069 1.2085-.328 1.6919-.1036.1208-.2244.2071-.3453.2935zm2.2961.2935c-.2416 0-.587-.0518-.6215-.3453V4.441c-.0172-.3107.2935-.4488.5525-.4316.259-.0172.6215.0173.6906.328v4.247c-.0173.3108-.3799.3453-.6216.3453zm0-5.7836c-.2416 0-.587-.0517-.6215-.3452l.0173-.6043c.1209-.2762.4661-.2935.7251-.2762.2417 0 .5352.1381.518.4316-.0173.1726.0172.397-.0519.5697-.1036.2072-.3798.2244-.587.2244zm2.2444 5.7836c-.259 0-.656-.0864-.6215-.4144V.6775c.0345-.3452.4316-.397.6906-.3798.2762 0 .6042.1727.5524.4834v7.8034c-.0345.3108-.3798.3453-.6215.3453zm5.49-.2935a3.9017 3.9017 0 0 1-1.8818.259c-.5524-.0173-1.174-.1037-1.6056-.5007-.3452-.3453-.4143-.8632-.397-1.3466V5.477c.0345-.4834.2762-.9668.725-1.174a3.9708 3.9708 0 0 1 1.83-.2762c.5525.0345 1.174.0863 1.6056.4834.3453.328.449.8287.3971 1.2948-.0518.2762-.397.328-.6388.3108-.2417 0-.5697-.069-.6042-.3626 0-.3625.0173-.7769-.1726-1.0876-.2245-.2245-.5525-.2245-.8287-.2245-.2935 0-.6215 0-.8632.1727-.2245.2935-.2072.6733-.2245 1.0013l.0173 2.0372c.0345.2762.0345.6388.328.7769.3453.1726.7424.1553 1.1222.1036.259-.0518.518-.2072.5697-.5007.0518-.2762.0173-.5525.0518-.846.069-.2762.4143-.3107.656-.3107.2417 0 .5698.0863.587.3625.0345.5525-.1726 1.174-.6905 1.433zm4.903-3.004c-.0172-.3453 0-.7251-.1899-1.0359-.2244-.2071-.5524-.1726-.8286-.1899-.2935 0-.6043 0-.846.1727-.2072.2935-.1899.6733-.2072 1.0013v2.0372c.0346.2762.0518.6388.3453.7769.3453.1726.7424.1553 1.105.1036.2762-.0518.5351-.2072.5697-.5007.069-.518.0345-1.0359.0518-1.571zm.6216 2.9867c-.5525.2935-1.2085.3108-1.8128.3108-.5697-.0346-1.174-.0518-1.64-.4144-.4144-.328-.518-.8632-.4835-1.3811v-1.692c.0346-.4833.2762-.984.7424-1.2084.5697-.2244 1.1912-.2244 1.7955-.2244.5179.0345 1.1049.069 1.5537.397.4144.3453.4834.8978.4834 1.3984v1.7092c-.0345.4316-.2244.8977-.6387 1.1222zm8.045.2935c-.2761.0173-.656-.1036-.6214-.4316v-3.332c0-.2935-.069-.656-.4144-.6906-.3453-.069-.7769-.1036-1.0703.1209-.2245.2244-.1382.5697-.1727.8632v3.1075c-.0345.3453-.4316.3626-.6906.3453-.259.0173-.6042-.138-.5524-.4316v-3.332c0-.2935-.069-.656-.4144-.6905-.3452-.0518-.7423-.0864-1.0358.1035-.259.19-.1727.5525-.2072.8115v3.2111c-.0345.3453-.4316.3626-.6905.3453-.2763.0173-.6043-.1381-.5525-.4316V5.477c0-.5007.2072-1.0704.6906-1.2603a4.6613 4.6613 0 0 1 2.0026-.1726c.2762.0172.5697.069.8287.2071.587-.2762 1.2603-.259 1.899-.2244.5007.0345 1.0877.1036 1.3812.5697.3453.5352.2244 1.2085.2417 1.7955v2.1925c-.0173.2935-.3798.3626-.6215.3626z"/><g aria-label="Deine Weiterbildung" style="line-height:1.25;-inkscape-font-specification:'Gill Sans Ultra Bold, '" stroke-width=".2646" font-family="Franklin Gothic Medium Cond" font-size="4.2333" font-weight="400" letter-spacing="0" word-spacing="0"><path d="M30.0964.0027h.414q.3008 0 .4802.1066.1807.1065.2724.317.0931.2103.0931.4666 0 .2697-.0836.4815-.0823.2104-.2536.3399-.17.1295-.4855.1295h-.437zm.3048.2441v1.3528h.1268q.2657 0 .3857-.1834.12-.1848.12-.4923 0-.677-.5057-.677zM32.628 1.2045h-.7702q0 .2764.0742.3695.0756.0917.1889.0917.1888 0 .2387-.2549l.2562.0337q-.1011.433-.5044.433-.2468 0-.3938-.1767t-.147-.518q0-.3506.1483-.5421.1484-.1915.3966-.1915.174 0 .2926.0957.1187.0958.1673.2522.0485.1552.0526.4074zm-.2873-.1902q0-.3601-.2347-.3601-.2198 0-.2414.36zM33.15.298h-.294V0h.294zm-.2873.1835h.2805v1.3623h-.2805zM33.4777.4815h.2603V.692q.0944-.2428.3372-.2428.1376 0 .2212.0661.085.0661.1066.1592.0229.0917.0229.2913v.878h-.2806V.9807q0-.178-.031-.2415-.031-.0647-.1322-.0647-.1052 0-.1645.0823-.058.0809-.058.3237v.7634h-.2819zM35.741 1.2045h-.7702q0 .2764.0742.3695.0755.0917.1888.0917.1888 0 .2387-.2549l.2563.0337q-.1012.433-.5044.433-.2469 0-.3939-.1767-.147-.1767-.147-.518 0-.3506.1484-.5421.1483-.1915.3965-.1915.174 0 .2927.0957.1187.0958.1672.2522.0486.1552.0526.4074zm-.2873-.1902q0-.3601-.2347-.3601-.2199 0-.2415.36zM36.3344.0027h.3089l.2495 1.3784.2886-1.3784h.2644l.286 1.3798.2616-1.3798h.2576l-.3871 1.8451h-.2752L37.2974.4963l-.286 1.3515h-.2805zM39.3725 1.2045h-.7702q0 .2764.0742.3695.0756.0917.1889.0917.1888 0 .2387-.2549l.2563.0337q-.1012.433-.5045.433-.2468 0-.3938-.1767t-.147-.518q0-.3506.1483-.5421.1484-.1915.3966-.1915.174 0 .2926.0957.1187.0958.1673.2522.0485.1552.0526.4074zm-.2873-.1902q0-.3601-.2347-.3601-.2198 0-.2414.36zM39.8938.298h-.294V0h.294zm-.2873.1835h.2805v1.3623h-.2805zM40.2714.1268l.2536-.0243v.379h.2603v.2266h-.2603v.6016q0 .1591.0081.2117.0081.0513.0486.085.0404.0324.1348.0324.05 0 .1133-.0095v.2239q-.1133.0243-.2104.0243-.1578 0-.2414-.0607-.0836-.062-.1066-.1673-.0229-.1052-.0229-.321V.7081h-.1767V.4815h.1848zM41.979 1.2045h-.7702q0 .2764.0742.3695.0756.0917.1888.0917.1889 0 .2388-.2549l.2562.0337q-.1011.433-.5044.433-.2468 0-.3938-.1767t-.147-.518q0-.3506.1483-.5421.1484-.1915.3966-.1915.174 0 .2926.0957.1187.0958.1673.2522.0485.1552.0526.4074zm-.2873-.1902q0-.3601-.2347-.3601-.2198 0-.2414.36zM42.2123.4815h.2482v.3048q.1133-.3331.3399-.3331.0216 0 .0512.0039v.2927q-.035-.004-.0566-.004-.3008 0-.3008.4047v.6933h-.2819zM42.9663.0027h.2792V.638q.12-.1808.317-.1808.213 0 .3358.1821.124.1807.124.4883 0 .7445-.5044.7445-.2374 0-.3304-.2131-.031.0769-.062.1848h-.1592zm.2792 1.2651q0 .3925.24.3925.1241 0 .1808-.1187.0566-.1186.0566-.3978 0-.2685-.0566-.3737-.0566-.1065-.1753-.1065-.104 0-.1754.0944-.0701.0944-.0701.255zM44.5713.298h-.294V0h.294zm-.2873.1835h.2806v1.3623h-.2806zM44.899.0027h.282v1.841h-.282zM46.2235.0027h.2792v1.841h-.2576v-.2063q-.0984.2306-.3385.2306-.2306 0-.3466-.1928-.1147-.1929-.1147-.5058 0-.3359.1268-.5233.1281-.1875.3399-.1875.2225 0 .3115.1807zm0 1.0399q0-.2104-.0795-.294-.0796-.085-.1646-.085-.2347 0-.2347.4802 0 .5125.2374.5125.0917 0 .166-.085.0754-.085.0754-.2954zM46.821.4815h.282v.866q0 .1807.0296.2427.0297.0607.1309.0607.1254 0 .1753-.1093.05-.1092.05-.4046V.4815h.2805v1.3623h-.2577v-.205q-.1092.2387-.3466.2387-.1214 0-.1996-.0513-.0769-.0512-.1106-.1457-.0337-.0944-.0337-.3277zM48.1037.4815h.2603V.692q.0945-.2428.3372-.2428.1376 0 .2212.0661.085.0661.1066.1592.0229.0917.0229.2913v.878h-.2806V.9807q0-.178-.031-.2415-.031-.0647-.1321-.0647-.1052 0-.1646.0823-.058.0809-.058.3237v.7634h-.2819zM50.4357.2644v.2063q-.039-.008-.0647-.008-.124 0-.147.1496.1025.1295.1025.2927 0 .1848-.1281.3116-.1282.1268-.3453.1268-.0823 0-.1727-.0243-.1025.039-.1025.1187 0 .0688.054.089.0553.0202.29.0324.2023.0107.3048.0378.1025.0269.1632.1106.062.0822.062.2171 0 .2077-.1604.3143-.1605.1079-.4573.1079-.286 0-.418-.0944-.131-.0931-.131-.2482 0-.197.1983-.263-.1483-.0823-.1483-.2226 0-.178.201-.2738-.1754-.116-.1754-.3493 0-.1996.1335-.3224.1336-.124.344-.124.1375 0 .2576.0593.0216-.1416.081-.1955.0606-.0553.1753-.0553.0337 0 .0836.0067zm-.3992.6366q0-.267-.1848-.267-.201 0-.201.2697 0 .2616.1943.2616.1915 0 .1915-.2643zm-.379.8861q-.1173.058-.1173.174 0 .0971.0755.143.0755.0458.2509.0458.3237 0 .3237-.1874 0-.0917-.062-.1255-.0608-.035-.2415-.0404-.1524-.0052-.2293-.0095z" style="-inkscape-font-specification:'Franklin Gothic Medium Cond'"/></g><g aria-label="Dein Kursinstitut" style="line-height:1.25;-inkscape-font-specification:'Gill Sans Ultra Bold, '" stroke-width=".2646" font-family="Franklin Gothic Medium Cond" font-size="4.2333" font-weight="400" letter-spacing="0" word-spacing="0"><path d="M30.0964 2.1768h.414q.3008 0 .4802.1065.1807.1066.2724.317.0931.2104.0931.4666 0 .2698-.0836.4815-.0823.2105-.2536.34-.17.1294-.4855.1294h-.437zm.3048.244v1.3529h.1268q.2657 0 .3857-.1834.12-.1848.12-.4923 0-.6771-.5057-.6771zM32.628 3.3785h-.7702q0 .2765.0742.3696.0756.0917.1889.0917.1888 0 .2387-.255l.2562.0338q-.1011.433-.5044.433-.2468 0-.3938-.1767t-.147-.518q0-.3506.1483-.5422.1484-.1915.3966-.1915.174 0 .2926.0958.1187.0957.1673.2522.0485.1551.0526.4073zm-.2873-.1902q0-.36-.2347-.36-.2198 0-.2414.36zM33.15 2.4721h-.294v-.298h.294zm-.2873.1835h.2805v1.3622h-.2805zM33.4777 2.6556h.2603v.2104q.0944-.2428.3372-.2428.1376 0 .2212.066.085.0662.1066.1592.0229.0918.0229.2914v.878h-.2806v-.8632q0-.178-.031-.2414-.031-.0647-.1322-.0647-.1052 0-.1645.0822-.058.081-.058.3237v.7634h-.2819zM35.2797 2.1768h.3048v.878l.5557-.878h.3223l-.4747.6757.5557 1.1653h-.3305l-.4114-.9131-.2171.3089v.6042h-.3048zM36.673 2.6556h.2818v.8659q0 .1807.0297.2428.0297.0606.1308.0606.1255 0 .1754-.1092.0499-.1093.0499-.4046v-.6555h.2805v1.3622h-.2576v-.205q-.1092.2387-.3466.2387-.1214 0-.1996-.0512-.077-.0512-.1106-.1457-.0338-.0944-.0338-.3277zM37.9556 2.6556h.2482v.3048q.1133-.3332.3399-.3332.0216 0 .0512.004v.2926q-.035-.0039-.0566-.0039-.3008 0-.3008.4047v.6932h-.2819zM39.5977 2.9739l-.2198.0593q-.0607-.205-.2307-.205-.0782 0-.1267.0486-.0472.0485-.0472.12 0 .081.0485.1187.0486.0378.2226.0944.2144.0715.3088.1619.0944.089.0944.2495 0 .1807-.1348.3062-.135.124-.3642.124-.433 0-.491-.3965l.2388-.0445q.0458.2347.2603.2347.1092 0 .1618-.054.054-.054.054-.128 0-.0513-.0364-.1013-.0364-.0512-.2037-.1052-.1605-.0512-.2428-.0957-.0809-.0445-.1335-.1281-.0526-.085-.0526-.1916 0-.174.1268-.2954.1268-.1227.3277-.1227.3413 0 .4397.3507zM40.1474 2.4721h-.294v-.298h.294zm-.2873.1835h.2805v1.3622h-.2805zM40.4751 2.6556h.2603v.2104q.0944-.2428.3372-.2428.1376 0 .2212.066.085.0662.1066.1592.0229.0918.0229.2914v.878h-.2806v-.8632q0-.178-.031-.2414-.031-.0647-.1321-.0647-.1053 0-.1646.0822-.058.081-.058.3237v.7634h-.2819zM42.5684 2.9739l-.2199.0593q-.0606-.205-.2306-.205-.0782 0-.1268.0486-.0472.0485-.0472.12 0 .081.0485.1187.0486.0378.2226.0944.2144.0715.3088.1619.0945.089.0945.2495 0 .1807-.135.3062-.1348.124-.364.124-.433 0-.491-.3965l.2387-.0445q.0459.2347.2603.2347.1093 0 .1619-.054.054-.054.054-.128 0-.0513-.0365-.1013-.0364-.0512-.2037-.1052-.1605-.0512-.2427-.0957-.081-.0445-.1336-.1281-.0526-.085-.0526-.1916 0-.174.1268-.2954.1268-.1227.3278-.1227.3412 0 .4397.3507zM42.9056 2.3008l.2536-.0242v.379h.2603v.2266h-.2603v.6015q0 .1592.008.2118.0081.0513.0486.085.0404.0323.1349.0323.0499 0 .1133-.0095v.224q-.1133.0242-.2104.0242-.1578 0-.2415-.0607-.0836-.062-.1065-.1672-.023-.1052-.023-.321V2.882h-.1766v-.2266h.1848zM43.897 2.4721h-.2941v-.298h.294zm-.2874.1835h.2806v1.3622h-.2806zM44.2746 2.3008l.2536-.0242v.379h.2603v.2266h-.2603v.6015q0 .1592.008.2118.0081.0513.0486.085.0404.0323.1349.0323.0499 0 .1133-.0095v.224q-.1133.0242-.2104.0242-.1579 0-.2415-.0607-.0836-.062-.1065-.1672-.023-.1052-.023-.321V2.882h-.1766v-.2266h.1848zM44.9705 2.6556h.282v.8659q0 .1807.0296.2428.0297.0606.1309.0606.1254 0 .1753-.1092.05-.1093.05-.4046v-.6555h.2805v1.3622h-.2577v-.205q-.1092.2387-.3466.2387-.1214 0-.1996-.0512-.0769-.0512-.1106-.1457-.0337-.0944-.0337-.3277zM46.3031 2.3008l.2536-.0242v.379h.2603v.2266h-.2603v.6015q0 .1592.008.2118.0082.0513.0486.085.0405.0323.135.0323.0498 0 .1132-.0095v.224q-.1133.0242-.2104.0242-.1578 0-.2414-.0607-.0836-.062-.1066-.1672-.0229-.1052-.0229-.321V2.882h-.1767v-.2266h.1848z" style="-inkscape-font-specification:'Franklin Gothic Medium Cond'"/></g><g aria-label="international academy union vienna" style="line-height:1.25;-inkscape-font-specification:'Gill Sans Ultra Bold, '" fill="navy" stroke-width=".2646" font-family="Franklin Gothic Medium Cond" font-size="2.8222" font-weight="400" letter-spacing="0" word-spacing="0"><path d="M30.2924 7.7537h-.196v-.1988h.196zm-.1916.1223h.187v.9081h-.187zM30.5109 7.876h.1735v.1402q.063-.1618.2248-.1618.0917 0 .1475.044.0566.044.071.1061.0153.0612.0153.1942v.5854h-.187v-.5755q0-.1187-.0207-.161-.0207-.043-.0881-.043-.0702 0-.1097.0548-.0387.054-.0387.2158v.509h-.188zM31.393 7.6395l.169-.0162v.2527h.1736v.151h-.1736v.401q0 .1062.0054.1412.0054.0342.0324.0567.027.0216.09.0216.0332 0 .0754-.0066v.1493q-.0755.0162-.1402.0162-.1052 0-.161-.0405-.0557-.0414-.071-.1115-.0153-.0701-.0153-.214v-.4136h-.1178v-.151h.1232zM32.5313 8.358h-.5134q0 .1842.0494.2463.0504.0611.126.0611.1258 0 .159-.17l.171.0225q-.0675.2887-.3364.2887-.1645 0-.2625-.1178t-.098-.3453q0-.2338.0989-.3615.0989-.1277.2643-.1277.116 0 .1952.0639.079.0638.1115.1681.0323.1034.035.2716zm-.1915-.1269q0-.24-.1565-.24-.1465 0-.161.24zM32.6869 7.876h.1654v.2032q.0756-.2221.2266-.2221.0144 0 .0342.0026v.1951q-.0234-.0026-.0378-.0026-.2005 0-.2005.2698v.4621h-.188zM33.1904 7.876h.1736v.1402q.063-.1618.2248-.1618.0917 0 .1474.044.0567.044.071.1061.0153.0612.0153.1942v.5854h-.187v-.5755q0-.1187-.0207-.161-.0206-.043-.088-.043-.0702 0-.1098.0548-.0386.054-.0386.2158v.509h-.188zM34.2074 8.1331l-.1807-.0225q.018-.1214.1115-.1888.0944-.0675.231-.0675.1223 0 .1952.0495.0737.0486.0926.116.0189.0674.0189.2041v.3093q0 .188.0161.2509h-.177q-.0118-.0495-.0118-.151-.0854.1735-.2553.1735-.1151 0-.1853-.0702-.0692-.071-.0692-.1924 0-.1483.1016-.2347.1025-.0863.3543-.0863.0126 0 .0395.0007v-.0369q0-.0971-.0296-.1466-.0288-.0494-.1044-.0494-.1231 0-.1474.142zm.2814.2086q-.036-.0039-.0548-.0039-.2446 0-.2446.1915 0 .1394.1214.1394.071 0 .124-.0755.054-.0756.054-.2077zM34.9213 7.6395l.169-.0162v.2527h.1736v.151h-.1735v.401q0 .1062.0054.1412.0054.0342.0324.0567.027.0216.0899.0216.0333 0 .0755-.0066v.1493q-.0755.0162-.1403.0162-.1052 0-.1609-.0405-.0558-.0414-.071-.1115-.0153-.0701-.0153-.214v-.4136h-.1178v-.151h.1232zM35.5831 7.7537h-.196v-.1988h.196zm-.1915.1223h.187v.9081h-.187zM36.4715 8.321q0 .4856-.3596.4856-.1655 0-.2608-.1169-.0944-.1178-.0944-.3597 0-.4756.3596-.4756.1637 0 .259.116.0962.116.0962.3506zm-.1987.009q0-.1915-.0432-.2625-.0422-.072-.115-.072-.1583 0-.1583.3346 0 .1708.0369.2526.0368.0818.1214.0818.0836 0 .1204-.0827.0378-.0836.0378-.2517zM36.6505 7.876h.1735v.1402q.063-.1618.2248-.1618.0917 0 .1475.044.0566.044.071.1061.0153.0612.0153.1942v.5854h-.187v-.5755q0-.1187-.0207-.161-.0207-.043-.0881-.043-.0702 0-.1097.0548-.0387.054-.0387.2158v.509h-.188zM37.6674 8.1331l-.1807-.0225q.018-.1214.1115-.1888.0944-.0675.231-.0675.1224 0 .1952.0495.0737.0486.0926.116.0189.0674.0189.2041v.3093q0 .188.0162.2509h-.1772q-.0116-.0495-.0116-.151-.0855.1735-.2554.1735-.1151 0-.1852-.0702-.0693-.071-.0693-.1924 0-.1483.1016-.2347.1025-.0863.3543-.0863.0126 0 .0396.0007v-.0369q0-.0971-.0297-.1466-.0288-.0494-.1043-.0494-.1232 0-.1475.142zm.2815.2086q-.036-.0039-.0549-.0039-.2446 0-.2446.1915 0 .1394.1214.1394.071 0 .1241-.0755.054-.0756.054-.2077zM38.3481 7.5567h.188v1.2274h-.188zM39.2716 8.1331l-.1808-.0225q.018-.1214.1115-.1888.0944-.0675.2311-.0675.1223 0 .1951.0495.0738.0486.0927.116.0188.0674.0188.2041v.3093q0 .188.0162.2509h-.1771q-.0117-.0495-.0117-.151-.0854.1735-.2554.1735-.115 0-.1852-.0702-.0692-.071-.0692-.1924 0-.1483.1016-.2347.1025-.0863.3542-.0863.0126 0 .0396.0007v-.0369q0-.0971-.0297-.1466-.0287-.0494-.1043-.0494-.1232 0-.1474.142zm.2814.2086q-.036-.0039-.0548-.0039-.2446 0-.2446.1915 0 .1394.1214.1394.071 0 .124-.0755.054-.0756.054-.2077zM40.5817 8.1817l-.1808.0197q-.0135-.1186-.0458-.1582-.0324-.0405-.0917-.0405-.0837 0-.1214.0774-.0378.0764-.0378.2697 0 .3021.1592.3021.1222 0 .1375-.1969l.1808.0162q-.037.3354-.3318.3354-.1745 0-.259-.1259-.0836-.1259-.0836-.348 0-.2338.0908-.356.0908-.1223.2644-.1223.2796 0 .3192.3273zM40.8721 8.1331l-.1807-.0225q.018-.1214.1115-.1888.0944-.0675.231-.0675.1223 0 .1952.0495.0737.0486.0926.116.0189.0674.0189.2041v.3093q0 .188.0162.2509h-.1772q-.0117-.0495-.0117-.151-.0854.1735-.2553.1735-.1151 0-.1853-.0702-.0692-.071-.0692-.1924 0-.1483.1016-.2347.1025-.0863.3543-.0863.0126 0 .0395.0007v-.0369q0-.0971-.0296-.1466-.0288-.0494-.1043-.0494-.1232 0-.1475.142zm.2814.2086q-.036-.0039-.0548-.0039-.2446 0-.2446.1915 0 .1394.1214.1394.071 0 .124-.0755.054-.0756.054-.2077zM42.0257 7.5567h.1862v1.2274H42.04v-.1375q-.0656.1537-.2257.1537-.1537 0-.231-.1286-.0765-.1286-.0765-.3372 0-.2239.0845-.3488.0855-.125.2266-.125.1484 0 .2077.1205zm0 .6933q0-.1403-.053-.196-.053-.0566-.1097-.0566-.1565 0-.1565.32 0 .3418.1583.3418.0611 0 .1106-.0567.0504-.0566.0504-.197zM43.0904 8.358h-.5135q0 .1842.0495.2463.0504.0611.1259.0611.1259 0 .1591-.17l.1709.0225q-.0675.2887-.3363.2887-.1646 0-.2626-.1178t-.098-.3453q0-.2338.099-.3615.0988-.1277.2643-.1277.116 0 .1951.0639.0791.0638.1115.1681.0324.1034.035.2716zm-.1916-.1269q0-.24-.1564-.24-.1466 0-.161.24zM43.246 7.876h.1735v.1384q.0665-.16.2239-.16.1726 0 .2077.169.0639-.169.2302-.169.0827 0 .1375.036.0558.0359.0774.0952.0216.0593.0216.224v.5745h-.188v-.5593q0-.1286-.0225-.1744-.0216-.0459-.0881-.0459-.142 0-.142.2473v.5323h-.188v-.553q0-.1178-.01-.152-.009-.035-.035-.0548-.0251-.0198-.0656-.0198-.0782 0-.1115.0593-.0333.0585-.0333.1924v.5278h-.1879zM44.414 7.876h.1879l.1582.624.1628-.624h.169l-.2949.9657q-.0324.1052-.0594.1555-.027.0504-.0764.081-.0495.0314-.1277.0314-.0468 0-.0962-.0126v-.1493q.036.0066.0656.0066.0729 0 .1035-.036.0306-.035.0656-.1645zM45.5244 7.876h.188v.5772q0 .1205.0197.1619.0198.0404.0873.0404.0836 0 .1169-.0728.0332-.0728.0332-.2698v-.437h.187v.9082h-.1717v-.1367q-.0728.1592-.231.1592-.081 0-.1332-.0342-.0512-.0342-.0737-.0971-.0225-.063-.0225-.2185zM46.3796 7.876h.1735v.1402q.063-.1618.2248-.1618.0917 0 .1475.044.0566.044.071.1061.0153.0612.0153.1942v.5854h-.187v-.5755q0-.1187-.0207-.161-.0207-.043-.0882-.043-.0701 0-.1097.0548-.0387.054-.0387.2158v.509h-.1879zM47.42 7.7537h-.1961v-.1988h.196zm-.1916.1223h.187v.9081h-.187zM48.3083 8.321q0 .4856-.3597.4856-.1654 0-.2607-.1169-.0944-.1178-.0944-.3597 0-.4756.3596-.4756.1637 0 .259.116.0962.116.0962.3506zm-.1987.009q0-.1915-.0432-.2625-.0422-.072-.115-.072-.1583 0-.1583.3346 0 .1708.0369.2526.0368.0818.1214.0818.0836 0 .1204-.0827.0378-.0836.0378-.2517zM48.4872 7.876h.1736v.1402q.063-.1618.2248-.1618.0917 0 .1474.044.0567.044.071.1061.0153.0612.0153.1942v.5854h-.187v-.5755q0-.1187-.0207-.161-.0207-.043-.088-.043-.0702 0-.1098.0548-.0387.054-.0387.2158v.509h-.188zM49.5609 7.876h.1843l.17.6519.1663-.652h.1627l-.2571.9082h-.1664zM50.531 7.7537h-.196v-.1988h.196zm-.1915.1223h.187v.9081h-.187zM51.4096 8.358h-.5135q0 .1842.0495.2463.0504.0611.1259.0611.1259 0 .1591-.17l.1709.0225q-.0675.2887-.3363.2887-.1646 0-.2626-.1178t-.098-.3453q0-.2338.099-.3615.0988-.1277.2643-.1277.116 0 .195.0639.0792.0638.1116.1681.0324.1034.035.2716zm-.1916-.1269q0-.24-.1564-.24-.1466 0-.161.24zM51.566 7.876h.1736v.1402q.063-.1618.2248-.1618.0917 0 .1474.044.0567.044.071.1061.0153.0612.0153.1942v.5854h-.187v-.5755q0-.1187-.0207-.161-.0207-.043-.0881-.043-.0701 0-.1097.0548-.0387.054-.0387.2158v.509h-.188zM52.4148 7.876h.1736v.1402q.063-.1618.2248-.1618.0917 0 .1474.044.0567.044.071.1061.0153.0612.0153.1942v.5854h-.187v-.5755q0-.1187-.0207-.161-.0207-.043-.088-.043-.0702 0-.1098.0548-.0387.054-.0387.2158v.509h-.188zM53.4318 8.1331l-.1807-.0225q.018-.1214.1115-.1888.0944-.0675.231-.0675.1224 0 .1952.0495.0737.0486.0926.116.0189.0674.0189.2041v.3093q0 .188.0161.2509h-.1771q-.0117-.0495-.0117-.151-.0854.1735-.2553.1735-.1151 0-.1853-.0702-.0692-.071-.0692-.1924 0-.1483.1016-.2347.1025-.0863.3543-.0863.0126 0 .0395.0007v-.0369q0-.0971-.0297-.1466-.0288-.0494-.1043-.0494-.1232 0-.1474.142zm.2815.2086q-.036-.0039-.055-.0039-.2445 0-.2445.1915 0 .1394.1214.1394.071 0 .124-.0755.054-.0756.054-.2077z" style="-inkscape-font-specification:'Franklin Gothic Medium Cond'"/></g><g aria-label="Dein Erfolg" style="line-height:1.25;-inkscape-font-specification:'Gill Sans Ultra Bold, '" stroke-width=".2646" font-family="Franklin Gothic Medium Cond" font-size="4.2333" font-weight="400" letter-spacing="0" word-spacing="0"><path d="M30.0964 4.3175h.414q.3008 0 .4802.1065.1807.1066.2724.317.0931.2104.0931.4666 0 .2698-.0836.4815-.0823.2105-.2536.34-.17.1294-.4855.1294h-.437zm.3048.244v1.3529h.1268q.2657 0 .3857-.1834.12-.1848.12-.4923 0-.6771-.5057-.6771zM32.628 5.5192h-.7702q0 .2765.0742.3696.0756.0917.1889.0917.1888 0 .2387-.255l.2562.0338q-.1011.433-.5044.433-.2468 0-.3938-.1767t-.147-.518q0-.3506.1483-.5422.1484-.1915.3966-.1915.174 0 .2926.0958.1187.0957.1673.2522.0485.1551.0526.4073zm-.2873-.1902q0-.36-.2347-.36-.2198 0-.2414.36zM33.15 4.6128h-.294v-.298h.294zm-.2873.1835h.2805v1.3622h-.2805zM33.4777 4.7963h.2603v.2104q.0944-.2428.3372-.2428.1376 0 .2212.066.085.0662.1066.1592.0229.0918.0229.2914v.878h-.2806v-.8632q0-.178-.031-.2414-.031-.0647-.1322-.0647-.1052 0-.1645.0822-.058.081-.058.3237v.7634h-.2819zM35.2797 4.3175h1.0547v.244h-.75v.5261h.5881v.2455h-.588v.5759h.762v.2495h-1.0668zM36.5421 4.7963h.2482v.3048q.1133-.3332.3399-.3332.0215 0 .0512.004v.2926q-.035-.0039-.0566-.0039-.3008 0-.3008.4047v.6932h-.2819zM37.7196 4.7963h.2441v.2266h-.2441v1.1356h-.2752V5.023h-.178v-.2266h.178q.004-.2428.0418-.3345.0378-.093.1228-.1457.0863-.0526.2333-.0526.085 0 .166.0162v.2239q-.058-.0095-.1066-.0095-.0837 0-.1241.031-.0391.031-.0486.0796-.0094.0472-.0094.1915zM39.129 5.4639q0 .7283-.5395.7283-.2481 0-.3911-.1753-.1416-.1767-.1416-.5395 0-.7135.5395-.7135.2455 0 .3884.174.1443.174.1443.526zm-.298.0135q0-.2873-.0648-.3938-.0634-.108-.1726-.108-.2374 0-.2374.5018 0 .2563.0553.379.0553.1228.182.1228.1255 0 .1808-.1241.0567-.1255.0567-.3777zM39.3961 4.3175h.2819v1.841h-.2819zM41.07 4.5791v.2064q-.0392-.0081-.0648-.0081-.1241 0-.147.1497.1025.1295.1025.2927 0 .1848-.1282.3115-.1281.1268-.3453.1268-.0822 0-.1726-.0242-.1025.039-.1025.1186 0 .0688.054.089.0552.0203.29.0324.2022.0108.3048.0378.1025.027.1632.1106.062.0823.062.2172 0 .2077-.1605.3142-.1605.108-.4572.108-.286 0-.4182-.0945-.1308-.093-.1308-.2482 0-.1969.1983-.263-.1484-.0822-.1484-.2225 0-.178.201-.2738-.1754-.116-.1754-.3493 0-.1997.1336-.3224.1335-.124.344-.124.1375 0 .2575.0592.0216-.1416.081-.1955.0606-.0554.1753-.0554.0337 0 .0836.0067zm-.3993.6366q0-.267-.1848-.267-.201 0-.201.2697 0 .2617.1943.2617.1915 0 .1915-.2644zm-.379.8862q-.1174.058-.1174.174 0 .097.0756.143.0755.0458.2508.0458.3237 0 .3237-.1875 0-.0917-.062-.1254-.0607-.035-.2414-.0405-.1524-.0052-.2293-.0094z" style="-inkscape-font-specification:'Franklin Gothic Medium Cond'"/></g></svg>